#!OML:ASF F:\VICON\USERDATA\INSTALL\rory3\rory3.ASF
:FULLY-SPECIFIED
:DEGREES
1344
root 2.92456 17.7686 13.2539 -173.621 -6.15848 -182.817
lowerback 4.54557 0.0837318 -3.2673
upperback 0.395701 -0.0411934 2.10769
thorax -2.13943 0.00252845 4.01613
lowerneck -19.2924 1.05956 -8.72469
upperneck 32.0886 2.15376 2.00182
head 14.0707 -0.533562 2.52266
rclavicle -2.98177e-016 2.38542e-015
rhumerus -36.0857 -10.0822 -75.5963
rradius 29.3064
rwrist 23.0722
rhand -17.972 -2.89555
rfingers 7.12502
rthumb 8.2974 -32.7126
lclavicle -2.98177e-016 2.38542e-015
lhumerus -38.3063 30.0522 69.7197
lradius 25.5254
lwrist -9.02968
lhand -13.6056 27.1486
lfingers 7.12502
lthumb 12.5094 56.7542
rfemur -14.6991 3.88593 19.4813
rtibia 31.3086
rfoot -19.7819 0.0585436
rtoes 13.6795
lfemur -17.4446 -3.10469 -22.0935
ltibia 23.8041
lfoot -9.84276 -0.787941
ltoes -4.47156
1345
root 2.94131 17.7677 13.2648 -173.663 -6.06402 -182.927
lowerback 4.615 0.0908845 -3.32289
upperback 0.356491 -0.0354467 2.09355
thorax -2.21934 0.00877345 4.03313
lowerneck -19.3559 1.16034 -8.57901
upperneck 32.2226 2.27787 1.9044
head 14.1387 -0.488547 2.481
rclavicle -1.41137e-014 6.36111e-015
rhumerus -35.9055 -10.2009 -75.6248
rradius 29.1652
rwrist 23.2236
rhand -18.1862 -2.34832
rfingers 7.12502
rthumb 8.09059 -32.1734
lclavicle -1.41137e-014 6.36111e-015
lhumerus -37.9196 29.3166 69.9365
lradius 26.1119
lwrist -8.54052
lhand -13.7702 27.1472
lfingers 7.12502
lthumb 12.3507 56.7624
rfemur -14.7233 3.93064 19.4164
rtibia 31.3489
rfoot -19.7379 -0.016113
rtoes 13.1811
lfemur -17.3844 -3.00963 -22.1758
ltibia 23.7255
lfoot -9.72293 -0.789848
ltoes -4.4166
1346
root 2.9566 17.768 13.2739 -173.675 -6.02069 -182.861
lowerback 4.66063 0.0863767 -3.27167
upperback 0.243168 -0.0379956 2.16282
thorax -2.36165 0.0125062 4.07718
lowerneck -19.3938 1.29793 -8.41878
upperneck 32.497 2.41364 1.8375
head 14.2622 -0.447655 2.45131
rclavicle 1.46107e-014 -3.18055e-015
rhumerus -35.8131 -10.114 -75.6787
rradius 29.1315
rwrist 23.1893
rhand -18.2261 -2.23231
rfingers 7.12502
rthumb 8.05211 -32.0589
lclavicle 1.46107e-014 -3.18055e-015
lhumerus -37.7076 28.6126 70.0926
lradius 26.7279
lwrist -8.17341
lhand -13.8936 27.3999
lfingers 7.12502
lthumb 12.2317 57.0223
rfemur -14.7894 4.00302 19.5366
rtibia 31.3958
rfoot -19.7277 -0.0131488
rtoes 13.4236
lfemur -17.3795 -3.04211 -22.0479
ltibia 23.6448
lfoot -9.62767 -0.695511
ltoes -4.40562
1347
root 2.97051 17.7689 13.2833 -173.748 -6.01906 -182.825
lowerback 4.68809 0.0801542 -3.21537
upperback 0.241992 -0.0445581 2.20841
thorax -2.37768 0.00850189 4.09334
lowerneck -19.3672 1.36695 -8.38486
upperneck 32.5681 2.4685 1.90024
head 14.2821 -0.418042 2.48048
rclavicle -4.96962e-016 3.97569e-015
rhumerus -35.5359 -10.2031 -75.76
rradius 29.1175
rwrist 23.0448
rhand -18.1197 -2.43739
rfingers 7.12502
rthumb 8.15482 -32.26
lclavicle -4.96962e-016 3.97569e-015
lhumerus -37.3803 27.9182 70.321
lradius 27.4944
lwrist -7.75964
lhand -13.9248 27.6279
lfingers 7.12502
lthumb 12.2016 57.252
rfemur -14.7639 4.00884 19.6265
rtibia 31.4396
rfoot -19.7281 0.0535672
rtoes 13.9297
lfemur -17.312 -3.09932 -21.9572
ltibia 23.594
lfoot -9.61418 -0.618084
ltoes -4.723
1348
root 2.986 17.7686 13.2915 -173.859 -5.94024 -182.93
lowerback 4.70103 0.112929 -3.2859
upperback 0.317739 -0.00641105 2.21699
thorax -2.31045 0.0248517 4.13949
lowerneck -19.3009 1.3922 -8.4105
upperneck 32.51 2.51287 1.8976
head 14.2382 -0.398256 2.48965
rclavicle 1.2921e-015 -2.46493e-014
rhumerus -35.1544 -10.3589 -75.8129
rradius 29.014
rwrist 23.0168
rhand -18.0512 -2.4683
rfingers 7.12502
rthumb 8.22088 -32.2884
lclavicle 1.2921e-015 -2.46493e-014
lhumerus -36.9616 27.3779 70.5705
lradius 28.2166
lwrist -7.33059
lhand -13.9874 27.3018
lfingers 7.12502
lthumb 12.1413 56.9295
rfemur -14.6858 3.98579 19.5699
rtibia 31.4527
rfoot -19.6709 0.129987
rtoes 14.0808
lfemur -17.2099 -3.02612 -22.0295
ltibia 23.595
lfoot -9.61894 -0.583891
ltoes -5.2011
1349
root 3.00125 17.768 13.2971 -173.915 -5.7966 -182.932
lowerback 4.67259 0.130449 -3.29501
upperback 0.345009 0.0165238 2.2594
thorax -2.26865 0.0344899 4.18709
lowerneck -19.091 1.39504 -8.60311
upperneck 32.4315 2.50142 2.04464
head 14.1507 -0.404635 2.57531
rclavicle -2.78299e-015 -2.46493e-014
rhumerus -34.7963 -10.3729 -75.9518
rradius 28.9129
rwrist 23.1776
rhand -18.0285 -2.44
rfingers 7.12502
rthumb 8.24285 -32.2592
lclavicle -2.78299e-015 -2.46493e-014
lhumerus -36.5706 26.86 70.7636
lradius 28.8239
lwrist -6.86128
lhand -14.1848 27.2519
lfingers 7.12502
lthumb 11.951 56.8907
rfemur -14.6985 3.99679 19.6114
rtibia 31.492
rfoot -19.6125 0.199098
rtoes 14.2043
lfemur -17.1581 -2.89036 -21.9937
ltibia 23.5766
lfoot -9.58543 -0.541526
ltoes -5.20654
